<svg width="2449" height="2449" xmlns="http://www.w3.org/2000/svg" xmlns:xlink="http://www.w3.org/1999/xlink" xml:space="preserve" overflow="hidden"><defs><clipPath id="clip0"><rect x="10" y="10" width="2449" height="2449"/></clipPath><clipPath id="clip1"><rect x="194" y="194" width="2080" height="2080"/></clipPath><clipPath id="clip2"><rect x="194" y="194" width="2080" height="2080"/></clipPath><clipPath id="clip3"><rect x="194" y="194" width="2080" height="2080"/></clipPath></defs><g clip-path="url(#clip0)" transform="translate(-10 -10)"><path d="M33 1234.5C33 570.93 570.93 33 1234.5 33 1898.07 33 2436 570.93 2436 1234.5 2436 1898.07 1898.07 2436 1234.5 2436 570.93 2436 33 1898.07 33 1234.5Z" stroke="#000000" stroke-width="45.8333" stroke-miterlimit="8" fill="#FFFFFF" fill-rule="evenodd"/><g clip-path="url(#clip1)"><g clip-path="url(#clip2)"><g clip-path="url(#clip3)"><path d="M1908.46 1340.16C1882.65 1315.23 1841.52 1315.95 1816.6 1341.76 1792.28 1366.93 1792.28 1406.85 1816.6 1432.03L2008.88 1624.31 1760.4 1624.31C1662.71 1624.57 1568.98 1585.75 1500.09 1516.49L1279.35 1295.77 1187.46 1387.61 1408.2 1608.37C1501.42 1702.08 1628.23 1754.6 1760.4 1754.25L2008.88 1754.25 1816.6 1946.54C1790.79 1971.46 1790.07 2012.59 1815 2038.4 1839.93 2064.21 1881.06 2064.93 1906.87 2040 1907.41 2039.48 1907.94 2038.94 1908.46 2038.4L2211.65 1735.21C2237.01 1709.84 2237.01 1668.72 2211.65 1643.35Z"/><path d="M303.281 844.687 492.037 844.687C589.724 844.428 683.457 883.253 752.345 952.514L973.087 1173.23 1064.97 1081.39 844.233 860.626C751.022 766.924 624.205 714.397 492.037 714.75L303.281 714.75C267.4 714.75 238.312 743.836 238.312 779.719 238.312 815.601 267.4 844.687 303.281 844.687Z"/><path d="M1760.4 844.687 2008.88 844.687 1816.6 1036.97C1790.79 1061.9 1790.07 1103.03 1815 1128.84 1839.93 1154.65 1881.06 1155.36 1906.87 1130.44 1907.41 1129.91 1907.94 1129.38 1908.46 1128.84L2211.65 825.652C2237.01 800.281 2237.01 759.156 2211.65 733.786L1908.46 430.598C1882.65 405.671 1841.52 406.386 1816.6 432.194 1792.28 457.372 1792.28 497.286 1816.6 522.464L2008.88 714.75 1760.4 714.75C1628.23 714.397 1501.42 766.924 1408.2 860.626L752.345 1516.49C683.457 1585.75 589.724 1624.57 492.037 1624.31L303.281 1624.31C267.4 1624.31 238.312 1653.4 238.312 1689.28 238.312 1725.16 267.4 1754.25 303.281 1754.25L492.037 1754.25C624.205 1754.6 751.022 1702.08 844.233 1608.37L1500.09 952.514C1568.98 883.253 1662.71 844.428 1760.4 844.687Z"/></g></g></g></g></svg>